<svg xmlns="http://www.w3.org/2000/svg" xmlns:xlink="http://www.w3.org/1999/xlink" preserveAspectRatio="xMidYMid meet" width="30" height="18" viewBox="0 0 76 36">
  <defs>
    <style>
        .race-type-shape {
            fill: #FEFEFE;
        }
    </style>
  </defs>
  <path id="race-type-shape-hounds" class="race-type-shape" fill-rule="evenodd" d="M75.159,6.659 C74.462,7.248 73.926,7.034 73.228,6.980 C72.531,6.927 71.941,6.819 71.941,6.819 C71.941,6.819 71.458,6.659 71.458,6.659 C71.458,6.659 71.136,6.819 71.136,6.819 C71.136,6.819 70.654,6.819 70.654,6.819 C70.654,6.819 70.117,6.659 69.849,6.659 C69.581,6.659 69.366,6.819 69.366,6.819 C69.366,6.819 70.654,7.141 70.654,7.141 C70.654,7.141 71.458,7.462 71.458,7.462 C71.458,7.462 72.102,7.623 72.102,7.623 C72.102,7.623 72.638,7.837 72.907,8.105 C73.175,8.372 73.067,8.747 73.067,8.747 C73.067,8.747 72.799,9.336 72.424,9.390 C72.048,9.444 71.297,9.229 71.297,9.229 C71.297,9.229 70.332,9.069 70.332,9.069 C70.332,9.069 69.313,8.801 69.044,8.747 C68.776,8.694 68.079,8.908 68.079,8.908 C68.079,8.908 67.650,8.747 67.435,8.587 C67.221,8.426 66.309,7.944 66.309,7.944 C66.309,7.944 65.504,8.105 65.504,8.105 C65.504,8.105 64.807,8.158 64.539,8.265 C64.270,8.372 63.251,8.426 63.251,8.426 C63.251,8.426 62.286,8.587 61.964,8.587 C61.642,8.587 61.320,8.908 61.320,8.908 C61.320,8.908 60.194,9.872 60.194,9.872 C60.194,9.872 59.175,10.515 58.906,10.836 C58.638,11.157 56.707,12.764 56.010,13.406 C55.312,14.049 53.757,16.620 53.435,16.941 C53.113,17.262 52.362,18.601 52.148,18.869 C51.933,19.137 51.933,19.619 51.665,19.993 C51.397,20.368 50.538,20.957 50.538,20.957 C50.538,20.957 49.787,21.064 49.412,21.279 C49.036,21.493 48.768,21.654 47.964,21.761 C47.159,21.868 46.676,21.600 46.676,21.600 C46.676,21.600 46.515,22.028 46.515,22.243 C46.515,22.457 45.228,23.046 45.228,23.046 C45.228,23.046 43.833,24.010 43.619,24.331 C43.404,24.652 41.688,25.938 41.688,25.938 C41.688,25.938 39.971,27.384 39.757,27.705 C39.542,28.026 37.665,29.794 37.665,29.794 C37.665,29.794 38.630,29.794 38.630,29.794 C38.630,29.794 39.757,29.954 39.757,29.954 C39.757,29.954 41.098,30.168 41.527,30.276 C41.956,30.383 42.814,30.650 43.297,30.758 C43.780,30.865 43.619,31.240 43.941,31.400 C44.262,31.561 44.477,31.614 45.067,32.043 C45.657,32.471 45.818,33.007 45.872,33.810 C45.925,34.613 45.603,34.506 45.067,34.774 C44.531,35.042 44.745,34.131 44.745,34.131 C44.745,34.131 44.423,34.453 44.423,34.453 C44.423,34.453 43.619,34.292 43.619,34.292 C43.619,34.292 43.297,33.971 43.297,33.971 C43.297,33.971 42.600,33.328 42.170,33.007 C41.741,32.685 40.561,32.364 40.561,32.364 C40.561,32.364 39.918,32.043 39.274,32.043 C38.630,32.043 38.630,31.722 38.630,31.722 C38.630,31.722 37.826,31.400 37.826,31.400 C37.826,31.400 37.986,32.043 37.986,32.043 C37.986,32.043 38.201,32.685 38.147,33.328 C38.094,33.971 37.826,33.649 37.826,33.649 C37.826,33.649 37.343,33.489 37.343,33.489 C37.343,33.489 37.021,34.131 37.021,34.131 C37.021,34.131 36.860,33.810 36.860,33.810 C36.860,33.810 36.377,33.971 36.377,33.971 C36.377,33.971 35.894,33.489 35.894,33.489 C35.894,33.489 35.412,33.007 35.412,33.007 C35.412,33.007 35.090,32.203 35.090,32.203 C35.090,32.203 34.285,32.364 34.285,32.364 C34.285,32.364 33.481,32.471 33.159,32.525 C32.837,32.578 32.515,32.685 32.515,32.685 C32.515,32.685 32.032,33.328 32.032,33.328 C32.032,33.328 30.799,34.346 30.423,34.613 C30.048,34.881 28.975,35.577 28.975,35.577 C28.975,35.577 27.526,36.059 27.526,36.059 C27.526,36.059 27.205,35.738 26.722,35.738 C26.239,35.738 26.239,35.631 26.239,35.095 C26.239,34.560 26.507,34.239 26.722,34.131 C26.936,34.024 28.009,33.489 28.009,33.489 C28.009,33.489 28.814,33.489 28.814,33.489 C28.814,33.489 29.082,33.167 29.297,33.007 C29.511,32.846 29.458,32.525 29.458,32.525 C29.458,32.525 28.170,32.685 28.170,32.685 C28.170,32.685 27.419,32.739 26.883,32.685 C26.346,32.632 25.864,32.418 25.917,32.203 C25.971,31.989 26.239,31.722 26.239,31.722 C26.239,31.722 26.239,31.132 26.400,30.918 C26.561,30.704 27.044,30.758 27.044,30.758 C27.044,30.758 27.526,30.490 27.848,30.436 C28.170,30.383 28.492,30.758 28.492,30.758 C28.492,30.758 28.760,30.329 28.975,30.115 C29.189,29.901 29.297,30.168 29.458,30.436 C29.618,30.704 30.101,31.240 30.101,31.240 C30.101,31.240 30.530,30.543 30.745,30.436 C30.960,30.329 31.389,29.794 31.389,29.794 C31.389,29.794 30.101,29.419 29.297,29.312 C28.492,29.204 27.741,28.937 27.366,28.830 C26.990,28.723 26.615,28.348 26.400,28.348 C26.185,28.348 25.542,28.241 24.952,27.866 C24.362,27.491 24.308,27.223 24.308,27.223 C24.308,27.223 24.147,26.902 23.825,26.420 C23.503,25.938 23.986,25.135 23.986,25.135 C23.986,25.135 24.469,24.813 24.469,24.813 C24.469,24.813 25.595,23.528 25.595,23.528 C25.595,23.528 26.829,21.814 27.205,20.636 C27.580,19.458 27.526,19.404 27.366,18.708 C27.205,18.012 26.829,17.584 25.917,17.102 C25.005,16.620 23.664,16.566 22.699,16.298 C21.733,16.031 21.090,15.602 20.768,15.334 C20.446,15.067 20.285,14.852 19.802,14.370 C19.319,13.888 19.319,13.246 18.998,12.121 C18.676,10.997 18.676,11.211 18.193,10.997 C17.710,10.782 17.227,11.318 17.227,11.318 C17.227,11.318 16.852,12.014 16.745,12.282 C16.637,12.550 15.511,14.370 14.975,14.852 C14.438,15.334 14.224,16.084 13.365,17.102 C12.507,18.119 12.453,19.083 11.434,19.993 C10.415,20.904 9.396,21.654 8.538,21.921 C7.679,22.189 6.231,22.296 5.641,22.403 C5.051,22.511 4.193,22.564 3.871,22.564 C3.549,22.564 2.905,22.189 2.423,21.921 C1.940,21.654 1.243,21.654 0.653,20.957 C0.062,20.261 0.009,19.190 0.009,19.190 C0.009,19.190 0.974,19.886 1.457,20.154 C1.940,20.422 2.584,20.636 2.584,20.636 C2.584,20.636 3.871,20.797 3.871,20.797 C3.871,20.797 4.890,20.904 5.319,20.957 C5.748,21.011 7.197,20.743 7.894,20.475 C8.591,20.208 9.128,19.726 9.342,19.512 C9.557,19.297 9.825,19.351 9.825,19.351 C9.825,19.351 10.308,18.708 10.308,18.708 C10.308,18.708 11.112,18.387 11.112,18.387 C11.112,18.387 11.381,18.065 11.595,17.744 C11.810,17.423 12.614,16.405 12.722,15.977 C12.829,15.549 13.204,15.013 13.204,15.013 C13.204,15.013 14.331,13.246 14.331,13.246 C14.331,13.246 14.975,12.282 15.296,11.800 C15.618,11.318 15.833,10.997 15.618,10.997 C15.404,10.997 15.618,10.515 15.618,10.515 C15.618,10.515 16.584,9.551 16.584,9.551 C16.584,9.551 17.388,8.426 17.388,8.426 C17.388,8.426 18.354,7.248 18.837,6.819 C19.319,6.391 20.070,5.320 20.285,5.213 C20.500,5.106 22.538,3.553 22.860,3.285 C23.182,3.017 25.595,1.625 27.687,1.518 C29.779,1.411 34.500,1.571 35.251,1.678 C36.002,1.786 36.860,2.160 37.182,2.482 C37.504,2.803 38.147,2.696 38.952,2.964 C39.757,3.231 40.293,3.339 41.205,3.606 C42.117,3.874 42.814,4.517 43.297,4.731 C43.780,4.945 45.335,5.159 46.354,5.213 C47.374,5.266 47.749,5.213 48.607,5.374 C49.466,5.534 51.504,5.963 51.987,6.016 C52.469,6.070 53.596,5.534 53.596,5.534 C53.596,5.534 55.098,4.838 55.366,4.570 C55.634,4.303 56.814,3.713 57.136,3.606 C57.458,3.499 58.638,2.910 58.906,2.803 C59.175,2.696 59.550,2.482 59.550,2.482 C59.550,2.482 59.443,1.518 59.389,1.357 C59.335,1.196 59.389,0.714 59.389,0.714 C59.389,0.714 59.872,0.013 59.872,0.013 C59.872,0.013 62.757,1.285 62.757,1.285 C62.757,1.285 60.516,1.036 60.516,1.036 C60.516,1.036 62.920,1.357 62.920,1.357 C62.920,1.357 62.757,1.285 62.757,1.285 C62.757,1.285 63.265,1.342 63.265,1.342 C63.621,1.440 64.047,1.518 64.047,1.518 C64.047,1.518 63.403,1.357 63.403,1.357 C63.403,1.357 63.265,1.342 63.265,1.342 C62.897,1.240 62.602,1.117 62.929,1.036 C63.573,0.875 64.378,0.875 64.860,0.875 C65.343,0.875 67.221,1.089 67.918,1.196 C68.615,1.304 69.313,1.893 69.688,2.160 C70.064,2.428 70.439,3.285 70.815,3.285 C71.190,3.285 71.458,3.606 71.780,3.767 C72.102,3.928 73.926,4.570 74.355,4.731 C74.784,4.892 76.125,5.534 76.125,5.534 C76.125,5.534 75.857,6.070 75.159,6.659 ZM37.504,19.512 C37.396,19.458 37.209,19.244 37.021,19.029 C36.833,18.815 36.458,18.387 36.216,18.065 C35.975,17.744 35.734,17.423 35.734,17.423 C35.734,17.423 34.929,18.065 34.929,18.065 C34.929,18.065 33.132,19.940 32.837,20.154 C32.542,20.368 31.469,21.734 31.228,22.082 C30.986,22.430 30.691,23.233 30.423,23.849 C30.155,24.465 30.262,25.001 30.423,25.295 C30.584,25.590 30.933,26.259 31.067,26.420 C31.067,26.420 32.408,27.143 32.837,27.223 C33.266,27.303 33.427,27.330 33.802,27.062 C34.178,26.795 34.178,26.661 34.285,26.259 C34.393,25.858 34.527,25.456 34.607,25.295 C34.688,25.135 35.894,23.367 35.894,23.367 C35.894,23.367 36.377,22.725 36.377,22.403 C36.377,22.082 36.592,21.921 36.699,21.761 C36.806,21.600 37.316,20.636 37.504,20.154 C37.691,19.672 37.611,19.565 37.504,19.512 ZM39.435,23.528 C39.435,23.528 38.630,24.331 38.630,24.331 C38.630,24.331 37.370,25.670 37.021,25.938 C36.672,26.206 34.929,28.508 34.929,28.508 C34.929,28.508 35.573,28.830 35.573,28.830 C35.573,28.830 36.860,27.062 36.860,27.062 C36.860,27.062 37.531,26.206 37.826,25.938 C38.121,25.670 39.274,24.251 39.435,24.010 C39.596,23.769 39.918,23.046 39.918,23.046 C39.918,23.046 39.435,23.528 39.435,23.528 Z"/>
</svg>
