<svg xmlns="http://www.w3.org/2000/svg" xmlns:xlink="http://www.w3.org/1999/xlink" preserveAspectRatio="xMidYMid meet" width="30" height="18" viewBox="0 0 73 47">
  <defs>
    <style>
        .race-type-shape {
            fill: #FEFEFE;
        }
    </style>
  </defs>
  <path id="race-type-shape-jumping" class="race-type-shape" fill-rule="evenodd" d="M30.371,9.000 C30.371,9.000 33.534,4.287 42.836,4.907 C42.836,4.907 43.574,2.765 45.509,2.653 C47.445,2.541 48.670,4.035 48.670,5.321 C48.670,5.321 49.805,5.386 49.853,5.632 C49.901,5.879 48.865,6.284 48.748,6.280 C48.630,6.276 48.675,7.464 48.311,7.653 C47.946,7.841 47.745,7.730 47.745,7.730 C47.745,7.730 47.427,8.199 47.437,8.611 C47.447,9.023 47.465,9.172 47.283,9.181 C47.100,9.190 46.879,9.088 46.871,9.285 C46.864,9.482 46.867,9.629 46.589,9.622 C46.310,9.614 46.671,10.039 46.306,10.114 C45.941,10.188 46.320,10.614 46.820,10.450 C47.319,10.287 47.705,9.825 47.822,9.647 C47.939,9.469 48.587,8.897 49.184,8.922 C49.782,8.948 49.771,9.025 49.673,8.767 C49.575,8.508 49.430,7.766 50.212,7.730 C50.995,7.695 50.976,7.562 51.215,7.264 C51.453,6.967 51.516,6.247 51.446,6.150 C51.376,6.054 50.881,5.295 50.881,5.295 C50.881,5.295 51.960,5.891 51.960,5.891 C51.960,5.891 51.780,5.321 51.780,5.321 C51.780,5.321 52.937,6.150 52.937,6.150 C52.937,6.150 52.878,4.789 53.297,4.104 C53.715,3.419 53.172,4.946 53.374,5.244 C53.575,5.541 54.425,3.667 54.222,3.016 C54.019,2.364 54.351,2.507 54.479,2.809 C54.607,3.110 54.744,4.340 54.736,4.466 C54.728,4.587 55.146,3.676 55.063,3.195 C55.058,3.168 55.052,3.143 55.044,3.119 C54.895,2.666 55.070,3.171 55.070,3.171 C55.070,3.171 55.046,2.542 55.224,2.860 C55.402,3.179 55.378,3.638 55.378,3.638 C55.378,3.638 55.574,3.303 55.533,2.990 C55.491,2.676 55.481,2.316 55.481,2.316 C55.481,2.316 55.718,2.629 55.738,2.783 C55.758,2.936 55.892,2.109 55.892,2.109 C55.892,2.109 56.226,2.705 56.226,2.705 C56.226,2.705 56.509,2.912 56.509,2.912 C56.509,2.912 56.491,2.213 56.226,1.954 C55.961,1.694 56.638,2.031 56.638,2.031 C56.638,2.031 56.201,1.617 56.201,1.617 C56.201,1.617 57.275,1.965 57.306,2.031 C57.337,2.098 56.869,1.384 56.869,1.384 C56.869,1.384 57.349,1.387 57.614,1.772 C57.880,2.158 58.205,2.342 58.205,2.342 C58.205,2.342 58.338,1.893 58.128,1.643 C57.918,1.393 58.411,1.487 58.411,1.487 C58.411,1.487 58.848,2.264 58.848,2.264 C58.848,2.264 58.565,1.358 58.565,1.358 C58.565,1.358 58.385,0.710 58.385,0.710 C58.385,0.710 58.771,1.125 58.771,1.125 C58.771,1.125 58.745,0.814 58.745,0.814 C58.745,0.814 59.259,1.436 59.259,1.436 C59.259,1.436 59.105,0.788 59.105,0.788 C59.105,0.788 59.747,1.850 59.747,1.850 C59.747,1.850 59.876,1.384 59.876,1.384 C59.876,1.384 60.082,1.384 60.082,1.384 C60.082,1.384 59.362,0.477 59.362,0.477 C59.362,0.477 60.441,1.177 60.441,1.177 C60.441,1.177 60.621,2.187 60.621,2.187 C60.621,2.187 60.878,2.731 60.878,2.731 C60.878,2.731 61.161,2.083 61.161,2.083 C61.161,2.083 60.801,1.125 60.801,1.125 C60.801,1.125 61.264,1.228 61.264,1.228 C61.264,1.228 61.649,1.902 61.649,1.902 C61.649,1.902 61.701,2.627 61.701,2.627 C61.701,2.627 62.035,1.669 62.035,1.669 C62.035,1.669 62.343,2.472 62.343,2.472 C62.343,2.472 62.446,2.783 62.446,2.783 C62.446,2.783 63.145,2.550 63.243,2.524 C63.340,2.497 62.616,1.030 62.986,0.011 C62.986,0.011 63.666,0.981 63.731,1.203 C63.797,1.424 64.354,1.682 64.708,2.109 C64.708,2.109 64.836,1.928 64.836,1.928 C64.836,1.928 65.093,1.954 65.093,1.954 C65.093,1.954 65.247,1.954 65.247,1.954 C65.247,1.954 65.599,0.788 65.839,0.581 C65.839,0.581 65.974,0.802 66.147,1.073 C66.320,1.343 66.608,1.461 66.635,1.772 C66.663,2.084 66.671,2.374 66.790,2.549 C66.908,2.725 67.106,3.146 67.201,3.586 C67.296,4.025 67.285,3.894 67.458,4.000 C67.630,4.107 68.154,4.722 68.383,5.477 C68.612,6.231 69.149,6.800 69.282,7.057 C69.416,7.314 69.443,7.911 69.642,8.300 C69.842,8.689 71.464,12.630 71.621,12.963 C71.779,13.296 72.180,14.036 72.392,14.751 C72.605,15.465 73.146,15.720 71.750,16.823 C71.750,16.823 71.484,17.151 71.493,17.263 C71.501,17.376 70.919,18.024 70.362,17.937 C69.804,17.850 69.246,17.878 69.077,17.885 C68.908,17.892 68.281,17.620 68.280,16.771 C68.280,16.771 66.900,15.296 65.993,14.725 C65.085,14.154 64.689,14.117 64.554,13.818 C64.418,13.519 64.097,12.801 63.371,12.419 C62.645,12.037 61.122,11.396 59.542,13.404 C57.961,15.411 57.928,16.157 58.025,16.434 C58.123,16.712 58.202,19.712 57.871,20.631 C57.871,20.631 57.574,21.198 58.103,21.071 C58.631,20.944 61.249,20.164 61.829,20.191 C62.410,20.218 62.775,20.252 63.037,20.424 C63.300,20.596 64.399,21.434 64.399,21.434 C64.399,21.434 64.332,22.481 64.374,22.833 C64.415,23.185 65.081,27.632 65.273,27.858 C65.465,28.085 65.291,29.076 64.554,29.387 C63.816,29.698 63.191,30.993 63.191,30.993 C63.191,30.993 62.590,31.866 62.395,31.874 C62.200,31.882 61.017,32.608 60.930,32.703 C60.843,32.797 60.778,32.639 60.776,32.081 C60.773,31.523 61.075,29.004 61.572,28.921 C62.069,28.837 62.287,29.205 62.652,29.024 C63.016,28.843 63.064,28.636 63.012,28.480 C62.959,28.325 62.895,27.507 63.012,27.107 C63.128,26.708 62.885,23.957 62.575,23.481 C62.264,23.004 60.716,24.410 60.493,24.672 C60.269,24.934 58.417,26.053 57.332,26.486 C56.246,26.918 56.088,27.556 56.047,27.677 C56.005,27.799 55.394,28.208 54.813,27.910 C54.232,27.613 53.998,27.657 53.862,27.755 C53.726,27.853 53.399,28.652 52.140,28.428 C52.140,28.428 48.559,30.424 40.652,30.216 C32.745,30.008 30.268,28.927 28.675,28.921 C27.082,28.914 24.575,29.854 22.507,32.495 C20.439,35.137 19.835,34.991 17.881,35.656 C15.927,36.321 13.134,37.977 12.586,38.246 C12.038,38.515 9.935,39.770 9.194,40.396 C8.453,41.022 5.481,44.764 5.287,45.007 C5.093,45.251 4.460,45.886 3.565,45.759 C2.671,45.631 2.112,46.151 1.998,46.277 C1.883,46.403 0.188,46.787 0.019,46.380 C-0.150,45.973 0.374,44.243 1.124,43.971 C1.124,43.971 1.626,44.170 1.844,44.023 C2.061,43.876 2.552,43.748 2.794,44.075 C3.037,44.401 3.253,43.968 3.437,43.738 C3.621,43.508 4.839,41.998 5.493,41.510 C7.147,40.278 7.421,39.386 7.421,39.386 C7.421,39.386 9.118,37.282 9.271,36.847 C9.424,36.413 10.440,35.966 10.942,35.863 C11.444,35.760 13.807,34.072 14.283,33.221 C14.758,32.369 14.966,30.234 15.002,29.698 C15.038,29.161 14.086,23.577 17.675,20.735 C17.675,20.735 16.742,20.946 16.570,21.227 C16.398,21.508 16.150,20.800 16.519,20.424 C16.887,20.048 16.083,20.084 15.799,20.476 C15.515,20.868 14.964,20.413 15.131,21.201 C15.298,21.989 15.216,23.575 14.745,24.025 C14.274,24.474 12.842,25.942 12.869,27.315 C12.896,28.687 12.881,29.484 12.304,29.931 C12.304,29.931 12.443,28.877 12.227,27.962 C12.011,27.048 11.872,26.624 12.021,26.278 C12.170,25.933 11.328,26.614 11.224,27.315 C11.121,28.015 10.577,29.252 9.734,29.879 C8.891,30.506 7.551,31.258 7.087,31.097 C6.622,30.935 6.352,30.836 5.981,30.553 C5.611,30.269 6.344,30.490 6.804,30.527 C7.264,30.564 7.916,30.364 8.063,30.060 C8.211,29.757 7.559,29.598 7.112,29.594 C6.665,29.590 5.823,29.604 5.596,29.568 C5.369,29.532 5.084,29.528 4.671,29.309 C4.257,29.091 4.671,28.739 4.671,28.739 C4.671,28.739 6.033,28.532 6.033,28.532 C6.033,28.532 6.418,27.858 6.418,27.858 C6.418,27.858 5.287,28.014 5.287,28.014 C5.287,28.014 4.362,27.962 4.362,27.962 C4.362,27.962 4.953,27.444 4.953,27.444 C4.953,27.444 6.017,26.918 6.084,26.796 C6.151,26.675 6.658,26.038 6.907,25.216 C7.155,24.395 7.821,23.638 8.628,23.014 C9.436,22.391 10.327,21.373 11.353,21.097 C12.378,20.822 12.505,20.441 11.893,20.372 C11.280,20.303 11.980,19.843 12.561,19.699 C13.142,19.554 13.641,19.237 14.411,19.232 C15.181,19.228 16.448,18.701 19.012,19.310 C19.012,19.310 19.788,19.427 21.042,19.154 C22.296,18.882 24.427,18.418 24.949,18.248 C25.470,18.078 28.342,17.600 31.297,17.574 C31.297,17.574 31.598,17.353 31.759,17.419 C31.921,17.485 34.328,15.952 34.586,15.683 C34.844,15.414 30.662,15.039 30.166,12.808 C29.670,10.576 30.274,9.354 30.371,9.000 Z"/>
</svg>
