<svg xmlns="http://www.w3.org/2000/svg" xmlns:xlink="http://www.w3.org/1999/xlink" preserveAspectRatio="xMidYMid meet" width="30" height="18" viewBox="0 0 71 47">
  <defs>
    <style>
        .race-type-shape {
            fill: #FEFEFE;
        }
    </style>
  </defs>
  <path id="race-type-shape-gallop" class="race-type-shape" fill-rule="evenodd" d="M69.683,18.869 C69.683,18.869 68.789,19.434 68.789,19.434 C68.789,19.434 67.673,19.321 67.673,19.321 C67.673,19.321 66.779,18.530 66.779,18.530 C66.779,18.530 65.328,17.626 65.328,17.626 C65.328,17.626 63.094,17.287 63.094,17.287 C63.094,17.287 61.866,16.723 61.866,16.723 C61.866,16.723 61.084,15.932 61.084,15.932 C61.084,15.932 60.414,16.045 60.414,16.045 C60.414,16.045 59.967,16.609 59.967,16.609 C59.967,16.609 57.064,19.547 57.064,19.547 C57.064,19.547 53.602,23.841 53.602,23.841 C53.602,23.841 53.826,24.858 53.826,24.858 C53.826,24.858 53.267,25.536 53.267,25.536 C53.267,25.536 53.156,26.666 53.156,26.666 C53.156,26.666 52.374,29.490 52.374,29.490 C52.374,29.490 51.815,29.829 51.815,29.829 C51.815,29.829 51.592,30.733 51.592,30.733 C51.592,30.733 54.721,31.490 54.831,31.524 C54.940,31.559 56.282,31.863 56.282,31.863 C56.282,31.863 56.952,32.654 56.952,32.654 C56.952,32.654 57.176,33.784 57.176,33.784 C57.176,33.784 56.729,35.253 56.729,35.253 C56.729,35.253 55.836,38.191 55.836,38.191 C55.836,38.191 55.612,39.433 55.612,39.433 C55.612,39.433 55.501,40.789 55.501,40.789 C55.501,40.789 54.384,42.371 54.384,42.371 C54.384,42.371 53.379,43.275 53.379,43.275 C53.379,43.275 52.039,43.953 52.039,43.953 C52.039,43.953 51.369,44.405 51.369,44.405 C51.369,44.405 51.480,42.145 51.480,42.145 C51.480,42.145 51.815,41.354 51.815,41.354 C51.815,41.354 52.597,40.789 52.597,40.789 C52.597,40.789 53.044,41.354 53.044,41.354 C53.044,41.354 53.714,41.128 53.714,41.128 C53.714,41.128 54.272,40.224 54.272,40.224 C54.272,40.224 54.160,39.433 54.160,39.433 C54.160,39.433 54.272,38.642 54.272,38.642 C54.272,38.642 54.607,36.835 54.607,36.835 C54.607,36.835 54.831,34.010 54.831,34.010 C54.831,34.010 54.049,33.784 54.049,33.784 C54.049,33.784 52.485,33.784 52.485,33.784 C52.485,33.784 51.145,34.010 51.145,34.010 C51.145,34.010 51.145,35.027 51.145,35.027 C51.145,35.027 51.815,36.496 51.815,36.496 C51.815,36.496 52.485,37.964 52.485,37.964 C52.485,37.964 52.485,39.207 52.485,39.207 C52.485,39.207 51.927,40.111 51.927,40.111 C51.927,40.111 50.587,40.676 50.587,40.676 C50.587,40.676 49.024,40.563 49.024,40.563 C49.024,40.563 47.907,40.224 47.907,40.224 C47.907,40.224 46.790,40.676 46.790,40.676 C46.790,40.676 45.450,40.789 45.450,40.789 C45.450,40.789 44.222,41.015 44.222,41.015 C44.222,41.015 43.461,40.738 43.328,40.676 C43.196,40.614 42.435,40.337 42.435,40.337 C42.435,40.337 41.542,40.224 41.542,40.224 C41.542,40.224 40.760,39.772 40.760,39.772 C40.760,39.772 40.090,38.981 40.090,38.981 C40.090,38.981 39.420,38.417 39.420,38.417 C39.420,38.417 39.532,37.739 39.532,37.739 C39.532,37.739 39.978,37.626 39.978,37.626 C39.978,37.626 41.398,37.490 41.542,37.513 C41.685,37.536 41.988,37.174 41.988,37.174 C41.988,37.174 42.435,37.513 42.435,37.513 C42.435,37.513 43.105,38.191 43.105,38.191 C43.105,38.191 42.993,38.869 42.993,38.869 C42.993,38.869 43.663,39.433 43.663,39.433 C43.663,39.433 44.222,39.320 44.222,39.320 C44.222,39.320 44.333,38.869 44.333,38.869 C44.333,38.869 45.013,38.985 45.227,38.981 C45.441,38.978 47.014,39.094 47.014,39.094 C47.014,39.094 47.795,38.642 47.795,38.642 C47.795,38.642 49.024,38.417 49.024,38.417 C49.024,38.417 50.252,38.191 50.252,38.191 C50.252,38.191 50.140,37.739 50.140,37.739 C50.140,37.739 49.805,37.174 49.805,37.174 C49.805,37.174 49.024,36.496 49.024,36.496 C49.024,36.496 48.019,35.140 48.019,35.140 C48.019,35.140 47.795,34.349 47.795,34.349 C47.795,34.349 46.902,33.558 46.902,33.558 C46.902,33.558 45.785,32.315 45.785,32.315 C45.785,32.315 45.338,31.072 45.338,31.072 C45.338,31.072 44.110,31.298 44.110,31.298 C44.110,31.298 43.328,31.298 43.328,31.298 C43.328,31.298 41.765,31.298 41.765,31.298 C41.765,31.298 38.973,31.185 38.973,31.185 C38.973,31.185 36.963,30.959 36.963,30.959 C36.963,30.959 34.506,30.394 34.506,30.394 C34.506,30.394 31.702,28.894 31.156,28.586 C30.610,28.278 30.821,29.038 30.821,29.038 C30.821,29.038 32.496,34.688 32.496,34.688 C32.496,34.688 33.836,36.270 33.836,36.270 C33.836,36.270 38.750,40.789 38.750,40.789 C38.750,40.789 39.420,41.919 39.420,41.919 C39.420,41.919 40.313,43.727 40.313,43.727 C40.313,43.727 41.988,46.213 41.988,46.213 C41.988,46.213 41.877,46.552 41.877,46.552 C41.877,46.552 40.278,46.353 40.090,46.326 C39.902,46.299 38.862,46.213 38.862,46.213 C38.862,46.213 38.080,45.422 38.080,45.422 C38.080,45.422 38.415,44.744 38.415,44.744 C38.415,44.744 38.750,43.727 38.750,43.727 C38.750,43.727 38.594,43.383 38.303,43.049 C38.012,42.715 37.633,43.614 37.633,43.614 C37.633,43.614 37.633,44.405 37.633,44.405 C37.633,44.405 36.851,44.066 36.851,44.066 C36.851,44.066 36.181,43.953 36.181,43.953 C36.181,43.953 35.400,43.614 35.400,43.614 C35.400,43.614 34.841,43.049 34.841,43.049 C34.841,43.049 34.841,42.484 34.841,42.484 C34.841,42.484 35.288,41.693 35.288,41.693 C35.288,41.693 35.288,41.015 35.288,41.015 C35.288,41.015 34.730,40.902 34.730,40.902 C34.730,40.902 34.283,40.789 34.283,40.789 C34.283,40.789 32.608,39.885 32.608,39.885 C32.608,39.885 30.263,39.546 30.263,39.546 C30.263,39.546 27.471,38.869 27.471,38.869 C27.471,38.869 25.908,38.869 25.908,38.869 C25.908,38.869 24.903,38.417 24.903,38.417 C24.903,38.417 24.233,37.400 24.233,37.400 C24.233,37.400 24.679,36.270 24.679,36.270 C24.679,36.270 24.679,35.027 24.679,35.027 C24.679,35.027 24.679,32.993 24.679,32.993 C24.679,32.993 24.344,30.281 24.344,30.281 C24.344,30.281 22.446,28.586 22.446,28.586 C22.446,28.586 20.547,26.892 20.547,26.892 C20.547,26.892 19.922,26.188 19.658,25.891 C19.587,25.812 19.542,25.762 19.542,25.762 C19.542,25.762 18.872,24.293 18.872,24.293 C18.872,24.293 16.862,19.999 16.862,19.999 C16.862,19.999 16.974,18.869 16.974,18.869 C16.974,18.869 15.299,19.773 15.299,19.773 C15.299,19.773 13.177,19.886 13.177,19.886 C13.177,19.886 11.837,20.225 11.837,20.225 C11.837,20.225 12.507,19.660 12.507,19.660 C12.507,19.660 9.492,20.112 9.492,20.112 C9.492,20.112 7.035,20.677 7.035,20.677 C7.035,20.677 5.249,22.033 5.249,22.033 C5.249,22.033 4.355,22.824 4.355,22.824 C4.355,22.824 3.908,22.259 3.908,22.259 C3.908,22.259 2.568,23.728 2.568,23.728 C2.568,23.728 3.462,21.807 3.462,21.807 C3.462,21.807 4.020,20.903 4.020,20.903 C4.020,20.903 2.680,21.355 2.680,21.355 C2.680,21.355 3.239,20.451 3.239,20.451 C3.239,20.451 1.452,20.790 1.452,20.790 C1.452,20.790 2.122,19.999 2.122,19.999 C2.122,19.999 4.244,19.434 4.244,19.434 C4.244,19.434 4.355,18.982 4.355,18.982 C4.355,18.982 2.792,19.095 2.792,19.095 C2.792,19.095 1.228,19.095 1.228,19.095 C1.228,19.095 2.233,18.417 2.233,18.417 C2.233,18.417 2.207,17.922 2.010,17.852 C1.813,17.783 0.782,16.723 0.782,16.723 C0.782,16.723 -0.000,15.480 -0.000,15.480 C-0.000,15.480 1.340,16.158 1.340,16.158 C1.340,16.158 3.332,17.203 3.573,17.287 C3.815,17.372 5.695,17.287 5.695,17.287 C5.695,17.287 6.254,16.723 6.254,16.723 C6.254,16.723 8.599,16.836 8.599,16.836 C8.599,16.836 7.147,15.932 7.147,15.932 C7.147,15.932 9.604,16.609 9.604,16.609 C9.604,16.609 10.914,16.768 10.609,16.723 C10.303,16.677 9.604,15.593 9.604,15.593 C9.604,15.593 12.396,16.609 12.396,16.609 C12.396,16.609 16.639,16.948 16.639,16.948 C16.639,16.948 17.979,16.497 17.979,16.497 C17.979,16.497 19.249,15.676 19.542,15.593 C19.836,15.509 22.111,14.802 22.111,14.802 C22.111,14.802 25.796,14.011 25.796,14.011 C25.796,14.011 28.700,14.463 28.700,14.463 C28.700,14.463 32.496,15.932 32.496,15.932 C32.496,15.932 33.836,16.497 33.836,16.497 C33.836,16.497 34.395,16.271 34.395,16.271 C34.395,16.271 33.725,15.706 33.725,15.706 C33.725,15.706 33.278,15.028 33.278,15.028 C33.278,15.028 33.948,15.028 33.948,15.028 C33.948,15.028 36.091,15.559 36.293,15.593 C36.495,15.626 38.192,15.480 38.192,15.480 C38.192,15.480 42.658,14.915 42.658,14.915 C42.658,14.915 42.993,14.237 42.993,14.237 C42.993,14.237 41.095,14.124 41.095,14.124 C41.095,14.124 38.638,13.785 38.638,13.785 C38.638,13.785 36.405,13.559 36.405,13.559 C36.405,13.559 35.400,12.542 35.400,12.542 C35.400,12.542 35.065,10.960 35.065,10.960 C35.065,10.960 35.735,9.378 35.735,9.378 C35.735,9.378 37.186,7.796 37.186,7.796 C37.186,7.796 37.968,6.327 37.968,6.327 C37.968,6.327 38.750,5.649 38.750,5.649 C38.750,5.649 38.638,5.198 38.638,5.198 C38.638,5.198 38.192,5.085 38.192,5.085 C38.192,5.085 36.628,5.649 36.628,5.649 C36.628,5.649 34.506,6.327 34.506,6.327 C34.506,6.327 34.060,7.231 34.060,7.231 C34.060,7.231 33.166,7.796 33.166,7.796 C33.166,7.796 32.161,7.344 32.161,7.344 C32.161,7.344 31.826,6.779 31.826,6.779 C31.826,6.779 31.826,5.876 31.826,5.876 C31.826,5.876 29.481,0.226 29.481,0.226 C29.481,0.226 29.816,0.226 29.816,0.226 C29.816,0.226 32.385,5.424 32.385,5.424 C32.385,5.424 33.725,5.198 33.725,5.198 C33.725,5.198 34.395,4.407 34.395,4.407 C34.395,4.407 35.958,3.503 35.958,3.503 C35.958,3.503 38.080,2.260 38.080,2.260 C38.080,2.260 39.978,2.373 39.978,2.373 C39.978,2.373 42.100,2.260 42.100,2.260 C42.100,2.260 44.135,2.430 44.333,2.486 C44.532,2.542 45.897,2.825 45.897,2.825 C45.897,2.825 46.679,3.164 46.679,3.164 C46.679,3.164 46.679,2.712 46.679,2.712 C46.679,2.712 46.902,1.130 46.902,1.130 C46.902,1.130 47.572,0.339 47.572,0.339 C47.572,0.339 48.577,0.000 48.577,0.000 C48.577,0.000 49.805,0.113 49.805,0.113 C49.805,0.113 51.145,1.130 51.145,1.130 C51.145,1.130 51.704,2.260 51.704,2.260 C51.704,2.260 52.485,3.051 52.485,3.051 C52.485,3.051 51.815,3.051 51.815,3.051 C51.815,3.051 51.034,3.390 51.034,3.390 C51.034,3.390 50.475,4.068 50.475,4.068 C50.475,4.068 49.135,5.310 49.135,5.310 C49.135,5.310 48.465,5.536 48.465,5.536 C48.465,5.536 47.907,5.085 47.907,5.085 C47.907,5.085 47.125,5.876 47.125,5.876 C47.125,5.876 47.572,7.570 47.572,7.570 C47.572,7.570 47.460,8.700 47.460,8.700 C47.460,8.700 48.242,8.813 48.242,8.813 C48.242,8.813 49.917,9.943 49.917,9.943 C49.917,9.943 50.922,10.056 50.922,10.056 C50.922,10.056 51.480,10.621 51.480,10.621 C51.480,10.621 52.150,10.508 52.150,10.508 C52.150,10.508 57.287,7.909 57.287,7.909 C57.287,7.909 59.067,7.591 59.186,7.683 C59.304,7.776 60.637,7.344 60.637,7.344 C60.637,7.344 60.637,6.101 60.637,6.101 C60.637,6.101 62.871,8.248 62.871,8.248 C62.871,8.248 64.099,8.813 64.099,8.813 C64.099,8.813 70.130,16.609 70.130,16.609 C70.130,16.609 70.130,17.965 70.130,17.965 C70.130,17.965 69.683,18.869 69.683,18.869 ZM29.258,33.671 C29.258,33.671 28.476,33.106 28.476,33.106 C28.476,33.106 27.806,34.462 27.806,34.462 C27.806,34.462 27.359,35.592 27.359,35.592 C27.359,35.592 27.471,36.722 27.471,36.722 C27.471,36.722 28.253,36.948 28.253,36.948 C28.253,36.948 28.700,37.174 28.700,37.174 C28.700,37.174 30.040,37.626 30.040,37.626 C30.040,37.626 31.156,37.739 31.156,37.739 C31.156,37.739 30.375,36.496 30.375,36.496 C30.375,36.496 29.258,33.671 29.258,33.671 ZM50.252,11.412 C50.252,11.412 49.470,11.299 49.470,11.299 C49.470,11.299 48.465,11.412 48.465,11.412 C48.465,11.412 47.460,11.186 47.460,11.186 C47.460,11.186 46.455,11.186 46.455,11.186 C46.455,11.186 45.115,9.717 45.115,9.717 C45.115,9.717 44.222,8.700 44.222,8.700 C44.222,8.700 43.328,9.265 43.328,9.265 C43.328,9.265 42.212,9.717 42.212,9.717 C42.212,9.717 41.318,9.830 41.318,9.830 C41.318,9.830 41.207,10.395 41.207,10.395 C41.207,10.395 42.212,10.847 42.212,10.847 C42.212,10.847 44.557,11.412 44.557,11.412 C44.557,11.412 46.232,12.768 46.232,12.768 C46.232,12.768 46.344,13.446 46.344,13.446 C46.344,13.446 46.120,14.350 46.120,14.350 C46.120,14.350 46.679,14.463 46.679,14.463 C46.679,14.463 47.795,13.672 47.795,13.672 C47.795,13.672 48.912,12.881 48.912,12.881 C48.912,12.881 49.694,12.881 49.694,12.881 C49.694,12.881 49.917,12.316 49.917,12.316 C49.917,12.316 50.587,12.090 50.587,12.090 C50.587,12.090 51.034,11.638 51.034,11.638 C51.034,11.638 50.252,11.412 50.252,11.412 Z"/>
</svg>
