<svg xmlns="http://www.w3.org/2000/svg" xmlns:xlink="http://www.w3.org/1999/xlink" preserveAspectRatio="xMidYMid meet" width="30" height="18" viewBox="0 0 73 38">
  <defs>
    <style>
        .race-type-shape {
            fill: #FEFEFE;
        }
    </style>
  </defs>
  <path id="race-type-shape-trot" class="race-type-shape" fill-rule="evenodd" d="M71.617,12.779 C71.617,12.779 71.146,13.235 71.146,13.235 C71.146,13.235 69.968,14.109 68.791,14.147 C67.613,14.186 67.731,13.501 67.378,13.235 C67.024,12.969 67.142,12.893 66.907,12.779 C66.671,12.665 64.512,11.258 63.610,10.497 C62.707,9.737 62.196,10.497 62.196,10.497 C62.196,10.497 61.725,11.410 61.725,11.410 C61.725,11.410 61.725,11.866 61.725,11.866 C61.725,11.866 60.901,13.083 60.312,14.604 C59.724,16.125 59.488,17.493 59.370,18.710 C59.253,19.927 58.860,20.497 58.428,21.448 C57.997,22.398 58.899,23.273 58.899,23.273 C58.899,23.273 59.370,24.185 59.370,24.185 C59.370,24.185 60.783,25.554 60.783,25.554 C60.783,25.554 62.903,27.569 63.610,28.292 C64.316,29.014 64.552,30.117 64.552,30.117 C64.552,30.117 65.533,30.877 65.965,31.486 C66.396,32.094 66.907,32.855 66.907,32.855 C66.907,32.855 67.927,33.881 68.320,34.223 C68.634,34.497 66.678,33.165 65.884,32.621 C65.710,32.496 65.557,32.397 65.557,32.397 C65.557,32.397 65.686,32.486 65.884,32.621 C66.157,32.818 66.499,33.101 66.499,33.310 C66.499,33.652 67.912,34.222 67.912,34.222 C67.912,34.222 68.383,35.135 68.383,35.135 C68.383,35.135 67.598,35.477 66.970,35.591 C66.342,35.705 65.557,35.135 65.557,35.135 C65.557,35.135 64.929,34.869 64.615,34.679 C64.301,34.488 64.615,33.310 64.615,33.310 C64.615,33.310 64.144,33.012 63.690,32.718 C64.142,32.986 64.677,33.240 64.552,32.855 C64.316,32.132 63.884,31.866 63.138,31.029 C62.393,30.193 60.587,28.900 59.841,28.292 C59.096,27.683 55.877,25.288 54.660,24.642 C53.444,23.995 51.834,24.185 51.834,24.185 C51.834,24.185 51.363,24.642 51.363,24.642 C51.363,24.642 50.421,25.554 50.421,25.554 C50.421,25.554 49.479,27.379 49.479,27.379 C49.479,27.379 48.419,29.318 48.066,30.117 C47.713,30.915 47.242,32.284 46.653,32.855 C46.064,33.425 46.182,33.767 46.182,33.767 C46.182,33.767 45.240,33.767 45.240,33.767 C45.240,33.767 44.965,33.197 44.769,33.311 C44.573,33.425 43.827,33.767 43.827,33.767 C43.827,33.767 42.885,34.223 42.885,34.223 C42.885,34.223 41.551,34.604 41.472,34.680 C41.394,34.756 40.491,35.060 40.059,35.136 C39.627,35.212 39.431,35.060 39.117,34.680 C38.803,34.299 38.764,34.223 38.646,34.223 C38.528,34.223 37.233,34.223 37.233,34.223 C37.233,34.223 36.723,33.691 36.291,33.767 C35.859,33.843 35.624,33.121 35.349,32.855 C35.074,32.588 35.820,32.398 35.820,32.398 C35.820,32.398 36.723,31.866 37.233,31.942 C37.743,32.018 37.743,31.714 38.175,31.942 C38.607,32.170 39.117,32.398 39.117,32.398 C39.117,32.398 39.667,32.855 39.588,32.855 C39.510,32.855 40.530,32.398 40.530,32.398 C40.530,32.398 41.001,32.398 41.001,32.398 C41.001,32.398 41.472,32.398 41.472,32.398 C41.472,32.398 42.453,32.018 42.885,31.942 C43.317,31.866 43.984,31.790 44.769,31.029 C45.554,30.269 45.672,29.585 45.711,28.748 C45.750,27.912 46.496,26.771 46.653,26.010 C46.810,25.250 46.692,24.832 46.653,24.185 C46.614,23.539 46.182,23.729 46.182,23.729 C46.182,23.729 45.240,23.273 45.240,23.273 C45.240,23.273 44.298,22.817 44.298,22.817 C44.298,22.817 40.530,21.448 40.530,21.448 C40.530,21.448 36.487,19.509 35.820,19.166 C35.153,18.824 34.878,19.166 34.878,19.166 C34.878,19.166 34.407,20.535 34.407,20.535 C34.407,20.535 34.014,21.524 33.465,21.904 C32.915,22.284 32.131,23.311 31.581,23.729 C31.031,24.147 29.972,25.136 29.697,26.010 C29.422,26.885 30.168,27.379 30.168,27.379 C30.168,27.379 31.110,28.748 31.110,28.748 C31.110,28.748 33.112,30.383 33.465,31.029 C33.818,31.676 33.975,31.790 33.936,32.398 C33.897,33.007 34.014,33.159 33.936,33.311 C33.857,33.463 34.407,34.794 34.407,35.592 C34.407,36.391 34.093,36.391 33.936,36.505 C33.779,36.619 32.994,36.505 32.994,36.505 C32.994,36.505 32.798,36.048 32.523,35.592 C32.248,35.136 32.052,34.946 32.052,34.680 C32.052,34.413 32.091,33.387 32.052,32.855 C32.013,32.322 31.110,31.942 31.110,31.942 C31.110,31.942 30.168,30.573 30.168,30.573 C30.168,30.573 28.755,29.204 28.755,29.204 C28.755,29.204 26.164,26.733 25.929,26.467 C25.693,26.201 25.929,25.098 25.929,25.098 C25.929,25.098 26.400,24.642 26.400,24.642 C26.400,24.642 27.264,23.995 28.284,22.817 C29.304,21.638 27.813,21.904 27.813,21.904 C27.813,21.904 27.342,22.360 27.342,22.360 C27.342,22.360 25.458,23.273 25.458,23.273 C25.458,23.273 23.103,25.098 23.103,25.098 C23.103,25.098 18.864,27.836 18.864,27.836 C18.864,27.836 18.236,28.026 18.393,30.117 C18.541,32.089 17.569,34.261 15.567,36.048 C13.565,37.835 11.367,38.026 10.386,37.873 C9.405,37.721 7.520,37.113 6.618,36.505 C5.715,35.896 4.380,34.489 3.792,33.311 C3.203,32.132 3.321,30.801 3.321,29.661 C3.321,28.520 4.066,26.923 4.734,26.010 C5.401,25.098 6.657,24.147 7.560,23.729 C8.462,23.311 9.915,22.817 9.915,22.817 C9.915,22.817 9.915,22.360 9.915,22.360 C9.915,22.360 9.915,20.992 9.915,20.992 C9.915,20.992 9.444,20.992 9.444,20.992 C9.444,20.992 8.933,21.334 8.031,21.448 C7.128,21.562 7.049,21.486 5.676,21.448 C4.302,21.410 2.850,20.079 2.850,20.079 C2.850,20.079 1.908,20.079 1.908,20.079 C1.908,20.079 1.319,18.140 0.965,17.341 C0.612,16.543 0.023,14.642 0.023,14.147 C0.023,13.653 -0.055,9.509 0.023,8.672 C0.102,7.836 0.730,7.075 1.436,6.391 C2.143,5.707 2.182,5.821 2.379,5.478 C2.575,5.136 2.143,5.098 1.908,4.566 C1.672,4.034 1.397,4.300 1.436,4.110 C1.476,3.920 1.397,2.475 1.436,2.284 C1.476,2.094 2.339,1.296 2.850,0.916 C3.360,0.536 3.635,0.421 4.263,0.460 C4.891,0.498 5.636,0.460 6.147,0.916 C6.657,1.372 6.618,1.828 6.618,1.828 C6.618,1.828 8.031,1.828 8.031,1.828 C8.031,1.828 7.560,2.284 7.560,2.284 C7.560,2.284 6.618,2.741 6.618,2.741 C6.618,2.741 6.618,2.969 6.618,3.197 C6.618,3.425 6.971,3.767 7.089,4.110 C7.206,4.452 6.618,4.566 6.618,4.566 C6.618,4.566 6.578,5.517 6.147,5.935 C5.715,6.353 5.205,6.391 5.205,6.391 C5.205,6.391 5.205,7.303 5.205,7.303 C5.205,7.303 5.833,7.646 6.147,8.216 C6.461,8.786 6.892,8.901 7.089,10.041 C7.285,11.182 8.031,10.954 8.031,10.954 C8.031,10.954 8.541,10.878 8.973,10.497 C9.405,10.117 9.915,10.041 9.915,10.041 C9.915,10.041 10.386,9.623 10.857,9.585 C11.328,9.547 12.270,9.585 12.270,9.585 C12.270,9.585 12.859,9.091 13.212,9.129 C13.565,9.167 14.154,9.129 14.154,9.129 C14.154,9.129 16.038,8.216 16.038,8.216 C16.038,8.216 14.625,9.585 14.625,9.585 C14.625,9.585 14.742,10.155 14.625,10.497 C14.507,10.840 14.271,11.182 13.683,11.410 C13.094,11.638 13.212,11.866 13.212,11.866 C13.212,11.866 13.290,12.246 13.683,12.323 C14.075,12.398 13.683,13.235 13.683,13.235 C13.683,13.235 13.683,14.147 13.683,14.147 C13.683,14.147 14.585,14.033 15.096,14.147 C15.606,14.262 15.527,14.756 15.567,15.060 C15.606,15.364 16.509,15.516 16.509,15.516 C16.509,15.516 16.509,14.147 16.509,14.147 C16.509,14.147 17.922,12.779 17.922,12.779 C17.922,12.779 18.825,12.132 18.864,11.866 C18.903,11.600 21.219,10.041 21.219,10.041 C21.219,10.041 22.082,8.976 22.632,8.672 C23.181,8.368 24.437,8.634 24.987,8.672 C25.536,8.710 26.164,8.976 26.871,8.672 C27.578,8.368 28.441,7.950 29.697,7.760 C30.953,7.570 32.601,7.798 33.936,7.760 C35.271,7.722 37.037,7.988 38.646,8.216 C40.255,8.444 40.844,8.939 42.414,9.129 C43.984,9.319 49.950,9.129 49.950,9.129 C49.950,9.129 50.892,8.672 50.892,8.672 C50.892,8.672 51.834,7.760 51.834,7.760 C51.834,7.760 51.933,7.712 52.085,7.638 C52.598,7.390 53.718,6.847 53.718,6.847 C53.718,6.847 55.563,5.364 56.073,5.022 C56.584,4.680 57.643,3.995 58.428,3.653 C59.213,3.311 59.998,2.779 60.783,2.741 C61.568,2.703 62.393,2.437 63.138,2.284 C63.884,2.132 63.649,1.828 63.610,1.828 C63.570,1.828 63.610,0.916 63.610,0.916 C63.610,0.916 64.552,0.003 64.552,0.003 C64.552,0.003 64.552,0.916 64.552,0.916 C64.552,0.916 65.022,0.460 65.022,0.460 C65.022,0.460 65.493,0.003 65.493,0.003 C65.493,0.003 65.965,0.916 65.965,0.916 C65.965,0.916 66.043,2.741 66.436,3.197 C66.828,3.653 66.907,3.995 67.378,4.566 C67.849,5.136 68.359,5.783 68.320,5.935 C68.280,6.087 68.791,6.847 68.791,6.847 C68.791,6.847 69.262,7.303 69.262,7.303 C69.262,7.303 69.615,7.950 69.733,8.216 C69.850,8.482 71.146,10.687 71.617,11.410 C72.088,12.132 71.617,12.779 71.617,12.779 ZM11.799,12.779 C11.799,12.779 10.857,13.235 10.857,13.235 C10.857,13.235 9.444,13.691 9.444,13.691 C9.444,13.691 8.031,14.147 8.031,14.147 C8.031,14.147 7.677,15.098 8.031,15.060 C8.384,15.022 8.973,15.060 8.973,15.060 C8.973,15.060 10.386,14.604 10.386,14.604 C10.386,14.604 11.328,14.604 11.328,14.604 C11.328,14.604 11.799,13.691 11.799,13.691 C11.799,13.691 11.799,12.779 11.799,12.779 ZM18.393,21.448 C18.393,21.448 17.451,20.649 17.451,20.535 C17.451,20.421 16.038,19.623 16.038,19.623 C16.038,19.623 15.567,19.623 15.567,19.623 C15.567,19.623 14.625,20.535 14.625,20.535 C14.625,20.535 12.702,22.208 12.270,22.360 C11.838,22.513 13.212,22.817 13.212,22.817 C13.212,22.817 14.154,23.273 14.154,23.273 C14.154,23.273 15.488,24.375 15.567,24.642 C15.645,24.908 16.980,25.098 16.980,25.098 C16.980,25.098 17.451,24.185 17.451,24.185 C17.451,24.185 18.746,23.539 18.864,23.273 C18.982,23.007 19.963,22.588 19.806,22.360 C19.649,22.132 19.335,21.904 19.335,21.904 C19.335,21.904 18.393,21.448 18.393,21.448 ZM23.574,10.497 C23.574,10.497 22.632,10.954 22.632,10.954 C22.632,10.954 22.161,11.410 22.161,11.410 C22.161,11.410 21.219,11.866 21.219,11.866 C21.219,11.866 21.690,12.323 21.690,12.323 C21.690,12.323 21.690,13.235 21.690,13.235 C21.690,13.235 21.023,14.071 20.748,14.147 C20.473,14.224 19.806,15.516 19.806,15.516 C19.806,15.516 19.806,16.429 19.806,16.429 C19.806,16.429 20.748,16.429 20.748,16.429 C20.748,16.429 21.219,15.973 21.219,15.973 C21.219,15.973 22.632,15.973 22.632,15.973 C22.632,15.973 22.632,14.147 22.632,14.147 C22.632,14.147 23.103,12.779 23.103,12.779 C23.103,12.779 23.221,12.056 23.574,11.410 C23.927,10.763 24.516,10.497 24.516,10.497 C24.516,10.497 23.574,10.497 23.574,10.497 ZM63.202,32.397 C63.344,32.492 63.515,32.604 63.690,32.718 C63.296,32.483 62.964,32.238 63.202,32.397 Z"/>
</svg>
